<?xml version="1.0" encoding="UTF-8" standalone="no"?>
<svg
   viewBox="0 0 500 500"
   version="1.1"
   id="svg1"
   sodipodi:docname="cnt.svg"
   inkscape:version="1.4.2 (f4327f4, 2025-05-13)"
   width="500"
   height="500"
   xml:space="preserve"
   xmlns:inkscape="http://www.inkscape.org/namespaces/inkscape"
   xmlns:sodipodi="http://sodipodi.sourceforge.net/DTD/sodipodi-0.dtd"
   xmlns="http://www.w3.org/2000/svg"
   xmlns:svg="http://www.w3.org/2000/svg"><defs
     id="defs1"><filter
       style="color-interpolation-filters:sRGB"
       id="filter159"
       inkscape:label="filter1" /><filter
       style="color-interpolation-filters:sRGB"
       id="filter160"
       inkscape:label="filter1" /></defs><sodipodi:namedview
     id="namedview1"
     pagecolor="#ffffff"
     bordercolor="#000000"
     borderopacity="0.25"
     inkscape:showpageshadow="2"
     inkscape:pageopacity="0.0"
     inkscape:pagecheckerboard="0"
     inkscape:deskcolor="#d1d1d1"
     inkscape:zoom="0.43212891"
     inkscape:cx="72.894915"
     inkscape:cy="364.47457"
     inkscape:window-width="1920"
     inkscape:window-height="1129"
     inkscape:window-x="-8"
     inkscape:window-y="-8"
     inkscape:window-maximized="1"
     inkscape:current-layer="svg1"
     inkscape:lockguides="true" /><rect
     style="fill:#8c00ff;fill-opacity:1;fill-rule:evenodd;stroke-width:1.37589;stroke-linecap:round;stroke-linejoin:round;paint-order:stroke fill markers"
     id="rect2"
     width="500"
     height="500"
     x="0"
     y="0"
     rx="74.225151"
     ry="74.225151" /><g
     style="display:inline;opacity:1;fill:none;fill-rule:nonzero;stroke:none;stroke-width:0;stroke-linecap:butt;stroke-linejoin:miter;stroke-miterlimit:10;stroke-dasharray:none"
     transform="matrix(0,-4.5760786,4.5760786,0,44.070732,455.91799)"
     id="g1-5"
     sodipodi:insensitive="true"
     inkscape:label="react">
	<circle
   cx="45.001999"
   cy="45.001999"
   r="8.0220003"
   style="display:none;opacity:1;fill:#000000;fill-rule:nonzero;stroke:none;stroke-width:1;stroke-linecap:butt;stroke-linejoin:miter;stroke-miterlimit:10;stroke-dasharray:none"
   id="circle1" />
	<path
   d="M 90,45.02 C 90,38.715 82.605,33.25 71.098,29.951 73.994,18.338 72.959,9.202 67.501,6.051 62.946,3.414 56.347,5.298 48.918,11.332 47.613,12.393 46.304,13.563 44.999,14.831 43.694,13.564 42.385,12.394 41.08,11.332 33.652,5.298 27.051,3.414 22.5,6.051 17.041,9.202 16.006,18.338 18.901,29.951 7.394,33.25 0,38.715 0,45.02 c 0,6.305 7.394,11.769 18.901,15.069 -2.895,11.613 -1.86,20.749 3.599,23.9 1.313,0.76 2.797,1.123 4.415,1.123 5.11,0 11.545,-3.638 18.084,-9.952 6.539,6.315 12.974,9.952 18.084,9.952 1.62,0 3.103,-0.363 4.417,-1.123 5.459,-3.153 6.495,-12.288 3.599,-23.9 C 82.606,56.789 90,51.324 90,45.02 Z M 51.386,14.369 c 4.498,-3.653 8.525,-5.579 11.525,-5.579 0.997,0 1.884,0.214 2.633,0.646 3.543,2.047 4.313,9.449 1.781,19.544 -3.685,-0.844 -7.706,-1.481 -11.978,-1.878 -2.449,-3.465 -5.012,-6.651 -7.619,-9.469 1.22,-1.182 2.441,-2.275 3.658,-3.264 z m 6.152,37.888 c -1.418,2.457 -2.877,4.767 -4.356,6.937 -2.618,0.196 -5.347,0.304 -8.182,0.304 -2.835,0 -5.565,-0.108 -8.183,-0.304 -1.479,-2.17 -2.938,-4.481 -4.356,-6.937 -1.417,-2.455 -2.689,-4.872 -3.828,-7.237 1.14,-2.365 2.411,-4.783 3.828,-7.237 1.39,-2.408 2.847,-4.727 4.351,-6.937 2.62,-0.196 5.352,-0.304 8.189,-0.304 2.836,0 5.566,0.108 8.185,0.304 1.504,2.21 2.962,4.529 4.352,6.937 1.417,2.455 2.688,4.872 3.828,7.237 -1.139,2.365 -2.41,4.782 -3.828,7.237 z m 5.902,-2.646 c 1.122,2.665 2.059,5.236 2.822,7.684 -2.501,0.564 -5.196,1.037 -8.064,1.399 0.927,-1.449 1.838,-2.941 2.727,-4.481 0.888,-1.539 1.723,-3.074 2.515,-4.602 z M 45,69.566 c -1.737,-1.882 -3.494,-3.976 -5.239,-6.277 1.718,0.078 3.464,0.122 5.24,0.122 1.776,0 3.522,-0.044 5.239,-0.122 -1.746,2.301 -3.502,4.395 -5.24,6.277 z M 31.799,58.694 c -2.867,-0.361 -5.561,-0.835 -8.061,-1.398 0.763,-2.447 1.699,-5.017 2.82,-7.681 0.791,1.526 1.626,3.061 2.514,4.599 0.889,1.539 1.8,3.03 2.727,4.48 z M 26.558,40.425 c -1.121,-2.664 -2.058,-5.233 -2.82,-7.681 2.501,-0.564 5.195,-1.037 8.063,-1.399 -0.933,1.458 -1.846,2.95 -2.729,4.48 -0.888,1.539 -1.723,3.073 -2.514,4.6 z M 44.999,20.444 c 1.775,1.929 3.531,4.043 5.244,6.306 -1.718,-0.078 -3.465,-0.122 -5.242,-0.122 -1.779,0 -3.526,0.044 -5.246,0.123 1.714,-2.264 3.469,-4.378 5.244,-6.307 z m 15.925,15.382 c -0.883,-1.53 -1.795,-3.022 -2.728,-4.481 2.869,0.361 5.563,0.835 8.065,1.399 -0.763,2.448 -1.7,5.018 -2.821,7.683 C 62.649,38.9 61.813,37.365 60.924,35.826 Z M 24.456,9.436 c 0.751,-0.432 1.635,-0.646 2.633,-0.646 3.002,0 7.029,1.926 11.523,5.579 1.217,0.989 2.439,2.081 3.658,3.265 -2.607,2.819 -5.17,6.005 -7.619,9.469 -4.272,0.396 -8.292,1.034 -11.977,1.878 C 20.142,18.885 20.913,11.484 24.456,9.436 Z M 3.913,45.02 c 0,-4.09 6.025,-8.459 16.034,-11.315 1.112,3.615 2.571,7.416 4.364,11.315 -1.793,3.899 -3.252,7.7 -4.364,11.315 C 9.938,53.479 3.913,49.11 3.913,45.02 Z m 20.543,35.583 c -3.543,-2.047 -4.314,-9.449 -1.782,-19.545 3.686,0.844 7.706,1.481 11.979,1.878 2.479,3.501 5.041,6.667 7.614,9.437 -7.477,7.232 -14.27,10.259 -17.811,8.23 z m 41.088,0 c -3.546,2.029 -10.338,-1 -17.812,-8.231 2.573,-2.769 5.134,-5.935 7.612,-9.435 4.273,-0.396 8.295,-1.034 11.981,-1.878 2.532,10.095 1.762,17.497 -1.781,19.544 z m 4.509,-24.268 c -1.112,-3.615 -2.572,-7.417 -4.367,-11.317 1.793,-3.898 3.253,-7.7 4.365,-11.314 10.011,2.856 16.036,7.225 16.036,11.316 0,4.09 -6.025,8.459 -16.034,11.315 z"
   style="opacity:1;fill:#000000;fill-rule:nonzero;stroke:none;stroke-width:1;stroke-linecap:butt;stroke-linejoin:miter;stroke-miterlimit:10;stroke-dasharray:none"
   stroke-linecap="round"
   id="path1-1" />
<ellipse
   style="fill:#000000;fill-rule:evenodd;stroke-width:7.824;stroke-linecap:round;stroke-linejoin:round;paint-order:stroke fill markers"
   id="path2"
   cx="177.1066"
   cy="208.00882"
   rx="30.100819"
   ry="29.164814"
   transform="matrix(0.21852771,0,0,0.21852771,-9.6307008,-9.6306912)" /><ellipse
   style="fill:#000000;fill-rule:evenodd;stroke-width:7.824;stroke-linecap:round;stroke-linejoin:round;paint-order:stroke fill markers"
   id="path2-3"
   cx="322.86386"
   cy="208.0134"
   rx="30.100819"
   ry="29.164814"
   transform="matrix(0.21852771,0,0,0.21852771,-9.6307008,-9.6306912)" /><ellipse
   style="fill:#000000;fill-rule:evenodd;stroke-width:7.824;stroke-linecap:round;stroke-linejoin:round;paint-order:stroke fill markers"
   id="path2-3-8"
   cx="250"
   cy="333.87402"
   rx="30.100819"
   ry="29.164814"
   transform="matrix(0.21852771,0,0,0.21852771,-9.6307008,-9.6306912)" /></g><g
     style="opacity:1;fill:none;fill-rule:nonzero;stroke:none;stroke-width:0;stroke-linecap:butt;stroke-linejoin:miter;stroke-miterlimit:10;stroke-dasharray:none"
     transform="matrix(1.8638671,0,0,1.8638671,145.31597,-198.93235)"
     id="g1-52"
     inkscape:label="play">
	<path
   d="m 56.164967,195.86071 c -24.853,0 -44.999999,20.147 -44.999999,45 0,24.853 20.146999,45 44.999999,45 24.853,0 44.999993,-20.147 44.999993,-45 0,-24.853 -20.146993,-45 -44.999993,-45 z m 17.251,46.633 -24.462,14.123 c -1.258,0.726 -2.829,-0.181 -2.829,-1.633 v -28.246 c 0,-1.452 1.572,-2.36 2.829,-1.634 l 24.461,14.123 c 1.258,0.726 1.258,2.541 10e-4,3.267 z"
   style="opacity:1;fill:#000000;fill-rule:nonzero;stroke:none;stroke-width:1;stroke-linecap:butt;stroke-linejoin:miter;stroke-miterlimit:10;stroke-dasharray:none"
   stroke-linecap="round"
   id="path1-7" />
</g></svg>
